<svg id="svg" xmlns="http://www.w3.org/2000/svg" xmlns:xlink="http://www.w3.org/1999/xlink" width="400" height="400" viewBox="0, 0, 400,400"><g id="svgg"><path id="path0" d="M30.424 1.787 C 10.756 8.492,0.000 24.136,-0.000 46.034 C -0.000 67.722,-4.209 62.276,70.243 136.914 L 133.172 200.000 70.243 263.086 C -4.209 337.724,0.000 332.278,-0.000 353.966 C -0.000 382.121,17.704 399.924,45.757 399.980 C 67.745 400.023,62.156 404.329,136.914 329.757 L 200.000 266.828 263.086 329.757 C 337.844 404.329,332.255 400.023,354.243 399.980 C 382.296 399.924,400.000 382.121,400.000 353.966 C 400.000 332.269,404.212 337.718,329.759 263.088 L 266.824 200.005 329.755 136.916 C 404.330 62.155,400.023 67.745,399.980 45.757 C 399.924 17.704,382.121 0.000,353.966 0.000 C 332.278 -0.000,337.724 -4.209,263.086 70.243 L 200.000 133.172 136.914 70.243 C 69.516 3.013,71.113 4.449,60.210 1.246 C 53.423 -0.747,36.981 -0.449,30.424 1.787 " stroke="none" fill="#000000" fill-rule="evenodd"></path></g></svg>