<svg id="svg" xmlns="http://www.w3.org/2000/svg" xmlns:xlink="http://www.w3.org/1999/xlink" width="400" height="400" viewBox="0, 0, 400,400"><g id="svgg"><path id="path0" d="M170.282 1.142 C 107.142 10.334,49.785 51.697,20.635 109.061 C -10.911 171.140,-7.050 250.636,30.290 307.841 C 69.328 367.648,129.054 400.034,200.222 399.986 C 264.740 399.942,316.619 375.074,357.410 324.638 C 397.465 275.112,410.928 206.131,392.848 143.074 C 371.703 69.325,305.674 11.999,229.379 1.151 C 219.372 -0.272,180.035 -0.277,170.282 1.142 M284.126 75.120 C 290.359 77.452,296.307 83.449,297.982 89.089 C 300.044 96.030,299.841 278.032,297.766 283.493 C 295.460 289.563,287.742 297.656,284.260 297.656 C 283.915 297.656,283.536 257.490,283.418 208.398 L 283.203 119.141 281.334 114.453 C 277.377 104.527,270.932 97.240,262.205 92.825 C 253.318 88.329,252.987 88.310,185.352 88.295 C 151.299 88.287,123.438 87.979,123.438 87.609 C 123.438 83.817,132.229 76.254,139.063 74.168 C 144.548 72.493,279.472 73.379,284.126 75.120 M254.032 106.469 C 259.124 108.969,263.512 113.471,265.908 118.654 L 267.578 122.266 267.786 215.968 C 267.967 297.664,267.842 310.191,266.813 313.731 C 265.256 319.087,259.918 325.016,254.065 327.890 L 249.609 330.078 179.297 330.078 L 108.984 330.078 104.572 328.009 C 99.197 325.490,94.165 320.613,91.913 315.742 L 90.234 312.109 90.234 217.562 L 90.234 123.014 92.809 117.785 C 96.202 110.892,101.711 106.410,108.984 104.625 C 110.273 104.308,142.441 104.105,180.469 104.173 L 249.609 104.297 254.032 106.469 M116.406 155.469 L 116.406 162.500 179.297 162.500 L 242.188 162.500 242.188 155.469 L 242.188 148.438 179.297 148.438 L 116.406 148.438 116.406 155.469 M116.406 185.938 L 116.406 193.750 179.297 193.750 L 242.188 193.750 242.188 185.938 L 242.188 178.125 179.297 178.125 L 116.406 178.125 116.406 185.938 M116.406 217.188 L 116.406 225.000 179.297 225.000 L 242.188 225.000 242.188 217.188 L 242.188 209.375 179.297 209.375 L 116.406 209.375 116.406 217.188 M116.406 247.261 L 116.406 254.688 179.326 254.688 L 242.246 254.688 242.022 247.461 L 241.797 240.234 179.102 240.034 L 116.406 239.834 116.406 247.261 M116.406 279.688 L 116.406 287.500 179.297 287.500 L 242.188 287.500 242.188 279.688 L 242.188 271.875 179.297 271.875 L 116.406 271.875 116.406 279.688 " stroke="none" fill="#000000" fill-rule="evenodd"></path></g></svg>