<svg xmlns="http://www.w3.org/2000/svg" width="107.922" height="90.68" viewBox="0 0 107.922 90.68"><defs><style>.a{fill:#542578;}.b{fill:#6f5284;}.c{fill:#662d91;}</style></defs><path class="a" d="M607.658,223.017a10.685,10.685,0,0,0,1.3-5.018c0-11.044-18.295-20-40.86-20s-40.86,8.955-40.86,20a10.648,10.648,0,0,0,1.214,4.857c-8.963,6.986-14.45,16.353-14.45,26.651,0,21.612,24.171,39.133,53.952,39.133S621.9,271.119,621.9,249.506C621.9,239.288,616.5,229.986,607.658,223.017Z" transform="translate(-514 -198)"/><path class="b" d="M607.721,284.671c-4.549,8.618-20.539,14.983-39.565,14.983-19.144,0-35.211-6.445-39.643-15.144-8.966,6.989-14.453,16.355-14.453,26.654,0,21.612,24.171,39.133,53.952,39.133s53.952-17.521,53.952-39.133C621.964,300.943,616.563,291.643,607.721,284.671Z" transform="translate(-514.043 -259.617)"/><path class="c" d="M564,284.943c4.6,10.934,21.293,18.416,42.586,18.416,16.114,0,33.091-7.769,36.544-18.416.2-.627-16.977,11.731-36.831,11.8C585.32,296.812,563.86,284.615,564,284.943Z" transform="translate(-549.611 -259.909)"/><path class="b" d="M599.92,198.14c-22.565,0-40.86,8.952-40.86,20s18.295,20,40.86,20,40.86-8.955,40.86-20S622.488,198.14,599.92,198.14Zm0,31.076c-15.573,0-28.2-4.961-28.2-11.078s12.626-11.078,28.2-11.078,28.2,4.961,28.2,11.078S615.5,229.216,599.92,229.216Z" transform="translate(-546.094 -198.1)"/></svg>