<svg xmlns="http://www.w3.org/2000/svg" width="162.162" height="98.669" viewBox="0 0 162.162 98.669"><defs><style>.a{fill:#542578;}.b{fill:#6f5284;}</style></defs><ellipse class="a" cx="14.436" cy="78.716" rx="14.436" ry="78.716" transform="translate(0 80.302) rotate(-83.3)"/><ellipse class="a" cx="9.013" cy="36.234" rx="9.013" ry="36.234" transform="translate(46.098 76.701) rotate(-83.3)"/><path class="a" d="M816.511,208C809.049,208,803,226.862,803,250.128q0,4.529.3,8.8c3.3-.283,6-.579,7.732-.757a2.128,2.128,0,0,0,1.9-2.323c-.938-9.551-1.958-37.909,1.779-46.786.453-1.074,2.023-.934,4.326-.33A4.92,4.92,0,0,0,816.511,208Z" transform="translate(-697.73 -180.545)"/><path class="a" d="M545.249,146.527a2.128,2.128,0,0,1-.638-2.468c4.213-10.147,28.256-64.188,60.6-65.088,17.873-.5,13.353,22.741,32.979,18.3,11.277-2.553,16.277-15.9,18.085-13.192.851,1.277-4.894,16.383-13.192,22.766-12.681,9.755-30.213-3.4-31.915.638-3.736,8.877-2.717,37.234-1.779,46.786a2.128,2.128,0,0,1-1.9,2.323c-5.668.589-21.741,2.43-35.454.923A53.657,53.657,0,0,1,545.249,146.527Z" transform="translate(-494.193 -78.963)"/><path class="a" d="M418.568,127.547l-4.5-2.183-4.349,2.468.685-4.953L406.71,119.5l4.926-.879,2.066-4.555,2.357,4.413,4.97.557-3.466,3.606Z" transform="translate(-318.52 -89.8)"/><path class="a" d="M303.673,230.11l-2.751-4.177-5-.1,3.123-3.909-1.451-4.787,4.683,1.762,4.1-2.857-.23,5,3.987,3.019-4.823,1.328Z" transform="translate(-231.302 -170.074)"/><path class="a" d="M745.635,95.775l3.743,3.317.355-4.987,4.313-2.536-4.634-1.881-.132-.6a41.791,41.791,0,0,0-6.56,3.209l.057.094-2,4.585Z" transform="translate(-648.749 -86.935)"/><ellipse class="b" cx="14.436" cy="78.716" rx="14.436" ry="78.716" transform="translate(0 80.302) rotate(-83.3)"/><ellipse class="a" cx="9.013" cy="36.234" rx="9.013" ry="36.234" transform="translate(46.098 76.701) rotate(-83.3)"/><path class="a" d="M816.511,208C809.049,208,803,226.862,803,250.128q0,4.529.3,8.8c3.3-.283,6-.579,7.732-.757a2.128,2.128,0,0,0,1.9-2.323c-.938-9.551-1.958-37.909,1.779-46.786.453-1.074,2.023-.934,4.326-.33A4.92,4.92,0,0,0,816.511,208Z" transform="translate(-697.73 -180.545)"/><path class="b" d="M545.249,146.527a2.128,2.128,0,0,1-.638-2.468c4.213-10.147,28.256-64.188,60.6-65.088,17.873-.5,13.353,22.741,32.979,18.3,11.277-2.553,16.277-15.9,18.085-13.192.851,1.277-4.894,16.383-13.192,22.766-12.681,9.755-30.213-3.4-31.915.638-3.736,8.877-2.717,37.234-1.779,46.786a2.128,2.128,0,0,1-1.9,2.323c-5.668.589-21.741,2.43-35.454.923A53.657,53.657,0,0,1,545.249,146.527Z" transform="translate(-494.193 -78.963)"/><path class="a" d="M418.568,127.547l-4.5-2.183-4.349,2.468.685-4.953L406.71,119.5l4.926-.879,2.066-4.555,2.357,4.413,4.97.557-3.466,3.606Z" transform="translate(-318.52 -89.8)"/><path class="a" d="M303.673,230.11l-2.751-4.177-5-.1,3.123-3.909-1.451-4.787,4.683,1.762,4.1-2.857-.23,5,3.987,3.019-4.823,1.328Z" transform="translate(-231.302 -170.074)"/><path class="a" d="M745.635,95.775l3.743,3.317.355-4.987,4.313-2.536-4.634-1.881-.132-.6a41.791,41.791,0,0,0-6.56,3.209l.057.094-2,4.585Z" transform="translate(-648.749 -86.935)"/></svg>