<svg xmlns="http://www.w3.org/2000/svg" width="106.237" height="121.409" viewBox="0 0 106.237 121.409"><defs><style>.a{fill:#6f5284;}.b{fill:#542578;}</style></defs><path class="a" d="M550.981,240.358,525.758,219.37a45.966,45.966,0,0,0,37.913-42.179l7.276-.168-.15-6.453-20.65.48.15,6.453,6.894-.16a39.524,39.524,0,0,1-36.137,36.137V195.77l7.044-.163-.15-6.453-20.65.48.15,6.453,7.152-.168v17.534a39.492,39.492,0,0,1-36.023-36.271l6.93-.16-.15-6.453-20.65.48.15,6.453,7.263-.17A45.954,45.954,0,0,0,509.7,219.313l-25.443,21.166-4.2-4.4-4.669,4.455,12.32,12.906,4.669-4.455-3.65-3.823L514.6,223.637v63.017l-7.029.163.119,5.162,20.65-.48-.119-5.162-7.168.168V223.854l25.482,21.2L542.8,249l4.685,4.435,12.217-12.906-4.685-4.434Z" transform="translate(-464.71 -170.57)"/><path class="b" d="M243.772,214.275l-25.482-21.2V188.43l4.7.163,25.223,20.988Z" transform="translate(-161.945 -139.793)"/><path class="b" d="M80.225,214.386,106.1,192.859V188.43l-4.894.106L75.76,209.707Z" transform="translate(-56.205 -139.793)"/><rect class="b" width="6.453" height="17.81" transform="translate(49.892 25.149)"/></svg>