<svg id="svg" xmlns="http://www.w3.org/2000/svg" xmlns:xlink="http://www.w3.org/1999/xlink" width="400" height="400" viewBox="0, 0, 400,400"><g id="svgg"><path id="path0" d="M170.282 1.142 C 107.142 10.334,49.785 51.697,20.635 109.061 C -10.911 171.140,-7.050 250.636,30.290 307.841 C 69.270 367.559,129.009 400.000,200.000 400.000 C 265.105 400.000,317.801 374.511,358.282 323.438 C 410.006 258.179,415.010 161.946,370.267 92.969 C 337.715 42.786,286.233 9.235,229.379 1.151 C 219.372 -0.272,180.035 -0.277,170.282 1.142 M225.938 79.003 C 246.842 83.433,254.098 109.320,238.740 124.678 C 215.183 148.235,174.308 119.163,192.158 91.546 C 199.273 80.538,211.595 75.962,225.938 79.003 M203.257 162.220 C 220.543 167.349,228.149 178.542,227.060 197.253 C 226.466 207.461,225.496 211.691,216.878 241.633 C 204.727 283.856,204.173 295.004,214.006 299.500 C 220.162 302.315,232.955 301.632,242.473 297.979 C 243.398 297.624,243.322 298.648,242.049 303.717 L 240.500 309.886 227.476 314.713 C 199.501 325.081,176.858 323.420,164.521 310.094 C 154.902 299.704,155.117 282.711,165.313 247.656 C 179.001 200.594,180.090 188.458,171.094 183.230 C 167.142 180.933,152.411 180.993,145.898 183.333 C 143.428 184.220,141.414 184.730,141.424 184.465 C 141.434 184.201,142.070 181.523,142.837 178.516 L 144.232 173.047 152.390 169.700 C 174.149 160.772,190.347 158.390,203.257 162.220 " stroke="none" fill="#000000" fill-rule="evenodd"></path></g></svg>