<svg id="svg" xmlns="http://www.w3.org/2000/svg" xmlns:xlink="http://www.w3.org/1999/xlink" width="400" height="400" viewBox="0, 0, 400,400"><g id="svgg"><path id="path0" d="M134.155 1.388 C 128.800 4.706,128.906 3.539,128.906 59.231 C 128.906 86.810,129.170 109.371,129.492 109.367 C 129.814 109.362,131.804 108.835,133.913 108.195 C 147.359 104.116,150.866 105.751,186.924 132.912 C 220.114 157.912,222.210 160.504,222.247 176.604 C 222.284 192.700,219.623 195.919,184.543 222.215 C 152.097 246.538,149.046 247.794,131.424 244.085 L 128.864 243.546 129.081 282.906 L 129.297 322.266 131.116 324.816 C 135.058 330.342,131.814 330.054,192.764 330.294 L 247.638 330.509 247.842 202.169 L 248.047 73.828 250.499 68.654 C 254.270 60.693,256.882 58.352,288.285 34.773 C 304.400 22.672,318.111 12.254,318.753 11.620 C 319.396 10.986,323.052 8.112,326.877 5.234 L 333.832 -0.000 235.080 0.021 C 142.994 0.040,136.181 0.132,134.155 1.388 M365.162 3.823 C 362.194 5.926,351.471 13.924,341.334 21.597 C 331.197 29.269,311.583 44.087,297.748 54.525 C 282.748 65.842,271.976 74.515,271.065 76.010 C 268.855 79.635,268.631 389.665,270.836 394.310 C 272.773 398.392,275.956 399.994,282.139 399.997 C 288.142 400.000,288.338 399.888,306.546 386.003 C 312.509 381.455,332.539 366.309,351.058 352.344 C 370.794 337.460,385.463 325.855,386.504 324.299 L 388.281 321.644 388.281 165.042 C 388.281 20.374,388.182 8.230,386.977 5.690 C 383.590 -1.448,373.785 -2.287,365.162 3.823 M136.328 130.009 C 130.822 132.456,128.906 136.514,128.906 145.729 L 128.906 152.293 74.275 152.514 C 20.241 152.732,19.621 152.752,17.440 154.369 C 12.032 158.377,11.719 159.588,11.719 176.495 C 11.719 193.973,12.226 195.896,17.659 199.011 L 20.703 200.756 74.805 200.768 L 128.906 200.781 128.906 207.647 C 128.906 222.236,139.289 229.169,149.742 221.558 C 163.971 211.198,197.477 185.117,198.691 183.457 C 203.227 177.249,200.741 169.598,192.256 163.653 C 182.710 156.965,163.978 142.971,156.587 137.006 C 146.674 129.006,142.122 127.434,136.328 130.009 M311.448 214.460 C 316.119 217.520,317.831 224.776,314.924 229.186 C 310.038 236.597,300.017 235.928,295.882 227.915 C 291.232 218.903,302.873 208.841,311.448 214.460 " stroke="none" fill="#000000" fill-rule="evenodd"></path></g></svg>