<svg id="svg" xmlns="http://www.w3.org/2000/svg" xmlns:xlink="http://www.w3.org/1999/xlink" width="400" height="400" viewBox="0, 0, 400,400"><g id="svgg"><path id="path0" d="M8.984 1.096 C 5.673 2.569,2.456 5.790,1.132 8.959 C -0.576 13.047,-0.576 355.213,1.132 358.517 C 2.557 361.273,6.800 365.033,9.808 366.206 C 17.976 369.392,177.016 400.135,183.998 399.877 C 196.826 399.404,200.243 394.899,200.645 377.930 L 200.899 367.188 244.621 367.187 C 293.645 367.187,291.407 367.437,296.718 361.387 C 300.900 356.625,300.878 356.970,300.625 298.309 L 300.391 243.884 298.042 240.497 C 291.834 231.543,278.489 230.318,270.810 237.997 C 265.809 242.998,266.037 240.699,265.795 288.477 L 265.575 332.031 233.178 332.031 L 200.781 332.031 200.781 197.419 L 200.781 62.807 198.732 58.695 C 195.765 52.741,193.211 51.437,171.789 44.939 C 161.309 41.760,149.395 38.103,145.313 36.812 L 137.891 34.465 201.758 34.420 L 265.625 34.375 265.625 76.421 C 265.625 124.428,265.598 124.178,271.347 129.478 C 279.728 137.203,293.804 134.959,298.979 125.072 L 300.781 121.629 300.781 66.840 L 300.781 12.050 299.023 8.609 C 298.057 6.717,295.915 4.094,294.263 2.780 L 291.261 0.391 151.295 0.222 C 36.039 0.084,10.914 0.238,8.984 1.096 M328.125 116.543 C 318.628 119.242,313.603 131.621,318.032 141.406 C 319.117 143.805,322.997 148.211,330.241 155.273 L 340.860 165.625 293.566 165.625 L 246.272 165.625 242.093 167.808 C 230.564 173.831,229.797 190.542,240.703 198.102 L 244.006 200.391 292.452 200.609 L 340.898 200.827 330.253 211.570 C 318.536 223.395,316.451 226.689,316.423 233.424 C 316.377 244.689,325.979 252.311,337.264 249.968 C 342.352 248.912,349.411 242.622,379.444 212.385 C 400.035 191.654,400.002 191.702,399.996 182.957 C 399.990 174.621,400.436 175.179,369.141 144.381 C 338.033 113.767,337.992 113.739,328.125 116.543 " stroke="none" fill="#000000" fill-rule="evenodd"></path></g></svg>