<svg id="svg" xmlns="http://www.w3.org/2000/svg" xmlns:xlink="http://www.w3.org/1999/xlink" width="400" height="400" viewBox="0, 0, 400,400"><g id="svgg"><path id="path0" d="M50.494 1.922 C 42.155 5.350,35.730 12.177,31.888 21.689 L 30.078 26.172 29.860 197.656 C 29.621 386.180,29.364 375.372,34.293 383.984 C 37.107 388.901,43.075 394.523,48.529 397.395 L 52.734 399.609 199.609 399.609 L 346.484 399.609 350.875 397.551 C 356.455 394.934,361.188 390.680,364.922 384.924 C 370.646 376.101,370.313 385.496,370.313 232.854 L 370.313 96.094 341.961 96.094 C 306.807 96.094,303.021 95.286,290.080 85.021 C 275.684 73.602,273.438 65.854,273.438 27.609 L 273.438 0.000 164.258 0.019 L 55.078 0.037 50.494 1.922 M298.445 27.930 C 298.454 62.061,299.322 64.999,310.938 70.251 C 314.710 71.957,370.808 72.842,370.182 71.186 C 369.658 69.798,300.180 0.000,299.323 0.000 C 298.680 0.000,298.440 7.642,298.445 27.930 M209.813 116.342 C 214.639 118.470,219.811 123.423,222.527 128.516 L 224.609 132.422 224.850 153.665 L 225.091 174.909 246.335 175.150 L 267.578 175.391 271.500 177.461 C 290.553 187.520,290.452 213.413,271.321 223.100 L 266.797 225.391 245.898 225.643 L 225.000 225.895 225.000 245.731 C 225.000 268.385,224.473 271.048,218.683 277.625 C 208.679 288.991,191.321 288.991,181.317 277.625 C 175.527 271.048,175.000 268.385,175.000 245.731 L 175.000 225.895 154.102 225.638 C 130.019 225.342,128.942 225.077,121.409 217.584 C 109.256 205.495,112.730 185.890,128.516 177.473 L 132.422 175.391 153.665 175.150 L 174.909 174.909 175.150 153.665 C 175.383 133.108,175.450 132.308,177.230 128.906 C 183.809 116.332,197.671 110.987,209.813 116.342 " stroke="none" fill="#000000" fill-rule="evenodd"></path></g></svg>