<svg id="svg" xmlns="http://www.w3.org/2000/svg" xmlns:xlink="http://www.w3.org/1999/xlink" width="400" height="400" viewBox="0, 0, 400,400"><g id="svgg"><path id="path0" d="M153.125 1.165 C 109.443 9.927,86.686 48.289,93.342 101.943 C 101.399 166.892,131.011 203.212,175.909 203.212 C 219.044 203.212,246.200 172.586,256.735 112.059 C 267.161 52.155,244.943 10.040,198.242 1.181 C 190.283 -0.329,160.625 -0.339,153.125 1.165 M101.424 196.532 C 97.266 198.405,88.301 201.915,81.502 204.332 C 45.768 217.035,37.552 229.354,28.575 283.696 C 19.828 336.642,20.634 349.052,33.187 354.733 C 73.733 373.081,159.504 385.128,210.430 379.627 C 220.550 378.534,221.435 377.990,218.895 374.423 C 218.036 373.215,215.759 369.072,213.837 365.215 C 182.372 302.097,228.327 227.379,298.633 227.347 C 307.089 227.343,307.216 226.875,300.586 220.158 C 294.451 213.942,287.062 210.022,271.457 204.707 C 265.027 202.517,255.626 198.950,250.567 196.780 L 241.368 192.836 236.611 197.240 C 201.785 229.482,150.607 229.554,115.911 197.408 C 110.265 192.177,110.994 192.221,101.424 196.532 M285.169 245.678 C 206.891 260.531,198.743 371.192,274.031 396.942 C 284.422 400.496,307.912 401.289,318.878 398.457 C 360.482 387.712,385.477 344.960,374.708 302.963 C 364.680 263.856,324.579 238.200,285.169 245.678 M304.418 277.844 C 310.404 280.685,311.280 283.056,311.719 297.592 L 312.109 310.547 324.751 310.938 C 340.050 311.410,343.743 313.289,345.036 321.257 C 346.550 330.583,340.298 334.688,324.084 335.015 L 311.719 335.264 311.719 347.594 C 311.719 363.632,308.695 368.750,299.219 368.750 C 289.895 368.750,286.749 363.289,286.732 347.070 L 286.719 335.156 275.195 335.139 C 257.162 335.112,249.533 329.459,253.504 319.063 C 256.074 312.333,258.382 311.390,273.373 310.938 L 286.328 310.547 286.719 298.047 C 287.295 279.601,293.411 272.621,304.418 277.844 " stroke="none" fill="#000000" fill-rule="evenodd"></path></g></svg>