<svg id="svg" xmlns="http://www.w3.org/2000/svg" xmlns:xlink="http://www.w3.org/1999/xlink" width="400" height="400" viewBox="0, 0, 400,400"><g id="svgg"><path id="path0" d="M170.282 1.142 C 107.142 10.334,49.785 51.697,20.635 109.061 C -10.911 171.140,-7.050 250.636,30.290 307.841 C 69.274 367.565,129.002 400.000,200.000 400.000 C 264.451 400.000,316.668 375.017,357.342 324.721 C 409.899 259.730,415.305 162.978,370.292 92.969 C 338.306 43.221,286.123 9.219,229.379 1.151 C 219.372 -0.272,180.035 -0.277,170.282 1.142 M125.452 129.607 C 133.997 133.487,135.953 143.891,129.375 150.469 C 124.074 155.770,116.716 155.726,111.352 150.363 C 101.337 140.347,112.599 123.769,125.452 129.607 M298.824 129.685 C 308.322 134.283,309.040 146.307,300.179 152.379 L 297.381 154.297 229.543 154.505 C 163.107 154.709,161.643 154.681,158.653 153.155 C 148.926 148.193,148.974 134.249,158.734 129.439 C 163.177 127.249,294.268 127.480,298.824 129.685 M125.452 188.200 C 133.997 192.081,135.953 202.484,129.375 209.063 C 124.074 214.364,116.716 214.320,111.352 208.956 C 101.337 198.941,112.599 182.363,125.452 188.200 M299.164 187.863 C 308.025 192.445,308.988 203.856,301.027 209.929 L 298.169 212.109 229.749 212.318 C 155.705 212.544,158.753 212.714,154.727 208.128 C 149.640 202.335,150.091 195.673,155.949 190.039 L 159.402 186.719 228.178 186.719 C 287.033 186.719,297.272 186.884,299.164 187.863 M298.967 246.161 C 309.294 251.160,308.780 264.765,298.079 269.625 C 293.096 271.889,163.835 271.843,158.841 269.575 C 149.025 265.119,148.871 251.144,158.582 245.979 C 163.093 243.580,293.984 243.749,298.967 246.161 M125.452 246.794 C 133.997 250.675,135.953 261.078,129.375 267.656 C 124.074 272.957,116.716 272.914,111.352 267.550 C 101.337 257.535,112.599 240.956,125.452 246.794 " stroke="none" fill="#000000" fill-rule="evenodd"></path></g></svg>