<svg xmlns="http://www.w3.org/2000/svg" width="174.416" height="84.483" viewBox="0 0 174.416 84.483">
  <g id="SiteCauldronLogoRe" transform="translate(-23.919 -0.03)">
    <path id="Path_244" data-name="Path 244" d="M280.753,281.48c-13.444,0-24.343,1.683-24.343,3.759S267.309,289,280.753,289s24.343-1.683,24.343-3.759S294.2,281.48,280.753,281.48Zm.229,7.23c-9.327,0-21.979-.895-22.745-3.068a13.17,13.17,0,0,1,4.079-.761c1.813-.061,2.407.388,5.37.895a22.03,22.03,0,0,0,5.907.537c3.635-.306,3.906-1.79,6.8-1.611,2.214.131,2.6,1.024,5.191,1.253a14.6,14.6,0,0,0,4.833-.537c3.868-.8,9.993-.859,12.172,1.131C299.168,288.065,288.883,288.71,280.982,288.71Z" transform="translate(-218.556 -243.509)" fill="#391c52"/>
    <path id="Path_245" data-name="Path 245" d="M244.89,281.129a4.935,4.935,0,0,0,0-3.043c-1.681-4.5-12.986-6.086-28.037-6.086s-26.357,1.586-28.037,6.086a4.936,4.936,0,0,0,0,3.043,18.4,18.4,0,0,0-10.2,18.1c.716,9.562,9.444,15.728,14.239,17.761,10.2,4.324,37.793,4.324,47.988,0,4.8-2.033,13.526-8.2,14.239-17.761A18.374,18.374,0,0,0,244.89,281.129Zm-5.1-3.383c-.548,2.214-13.349,3.129-22.764,3.129s-22.215-.915-22.763-3.129c-.44-1.776,7.91-3.553,22.763-3.467,14.855-.084,23.2,1.693,22.764,3.469Z" transform="translate(-154.64 -235.726)" fill="#67308f"/>
    <path id="Path_246" data-name="Path 246" d="M234.35,323.542a20.072,20.072,0,0,0,4.171,2.357c9.694,3.843,37.472,3.87,48.274,0a17.962,17.962,0,0,0,4.239-2.327l-.179-.1a.1.1,0,0,1,.013-.059h-.005a21.448,21.448,0,0,1-4.215,1.59c-10.74,2.656-38.351,2.637-47.988,0a23.633,23.633,0,0,1-4.1-1.595h-.12a.1.1,0,0,0,.013.059Z" transform="translate(-200.445 -277.934)" fill="#562b78"/>
    <path id="Path_247" data-name="Path 247" d="M216.919,415.847c-18.556,0-33.955-.879-37.966-11.869a19.747,19.747,0,0,0-.021,3.19c.716,9.562,9.442,15.728,14.239,17.761,10.2,4.323,37.793,4.323,47.988,0,4.8-2.033,13.525-8.2,14.239-17.761a19.714,19.714,0,0,0-.068-3.668C251.6,414.73,235.742,415.847,216.919,415.847Z" transform="translate(-154.901 -343.688)" fill="#562b78"/>
    <path id="Path_248" data-name="Path 248" d="M223,500.805a26.934,26.934,0,0,0,6.354,3.938c10.2,4.324,37.793,4.324,47.988,0a27.028,27.028,0,0,0,6.51-4.063C267.952,505.733,239.09,505.9,223,500.805Z" transform="translate(-191.127 -423.474)" fill="#391c52"/>
    <path id="Path_249" data-name="Path 249" d="M499.44,180.685c-1.183.634-4.3,1.432-14.459,18.921-.415.716-.829,1.409-1.232,2.076a12.991,12.991,0,0,1,4.255.848c.113-.2.215-.394.31-.569,1.158-1.611,4.387-7.249,7.1-10.929,3.463-4.708,8.146-8.916,8.325-9.99C503.854,180.336,501.715,179.466,499.44,180.685Z" transform="translate(-405.204 -160.255)" fill="#925b3d"/>
    <path id="Path_250" data-name="Path 250" d="M380.615,221.513a7.92,7.92,0,0,1-3.388-.791,5.465,5.465,0,0,1-2.076-1.774c.8-1.137,1.656-2.338,2.486-3.5.757-1.06,1.536-2.148,2.273-3.2a3.94,3.94,0,0,0,2.08,2.028,3.626,3.626,0,0,0,1.087.158,9.066,9.066,0,0,0,4.6-1.756,56.313,56.313,0,0,1-6.288,8.771A4.418,4.418,0,0,1,380.615,221.513Z" transform="translate(-316.043 -186.671)" fill="#fff"/>
    <path id="Path_251" data-name="Path 251" d="M377.368,208.161a3.76,3.76,0,0,0,1.969,1.64,4.1,4.1,0,0,0,1.219.179,7.65,7.65,0,0,0,3.336-.941,63.531,63.531,0,0,1-5.259,7.1,4.363,4.363,0,0,1-.537.029,7.471,7.471,0,0,1-3.193-.746,4.981,4.981,0,0,1-1.718-1.38c.743-1.056,1.532-2.16,2.3-3.234.625-.872,1.262-1.765,1.879-2.638m9.03-1.883s-3.166,2.8-5.835,2.8a3.212,3.212,0,0,1-.954-.136c-1.215-.379-1.754-1.8-2.182-2.425-1.7,2.425-3.635,5.091-5.332,7.518a5.98,5.98,0,0,0,2.424,2.182,8.38,8.38,0,0,0,3.58.836,3.674,3.674,0,0,0,1.024-.109c5.934-7.017,7.272-10.666,7.272-10.666Z" transform="translate(-313.531 -181.769)" fill="#010101"/>
    <path id="Path_252" data-name="Path 252" d="M365.175,89.137a19.437,19.437,0,0,1-3.478-5.347,60.575,60.575,0,0,1-2.187-6.372,7.246,7.246,0,0,0,2.288.4,5.582,5.582,0,0,0,1.547-.213,6.254,6.254,0,0,0,3.011-2.007,22.662,22.662,0,0,0,2.048,5.667,40.517,40.517,0,0,0,4.006,6,8.252,8.252,0,0,0-2.275-.345,5.586,5.586,0,0,0-1.715.254A9.047,9.047,0,0,0,365.175,89.137Z" transform="translate(-303.202 -74.48)" fill="#fff"/>
    <path id="Path_253" data-name="Path 253" d="M363.1,71.5a22.957,22.957,0,0,0,1.9,4.971,39.633,39.633,0,0,0,3.286,5.085,7.9,7.9,0,0,0-1.162-.09,6.018,6.018,0,0,0-1.851.276,9.36,9.36,0,0,0-3.068,1.761,18.792,18.792,0,0,1-3.1-4.883c-.809-1.994-1.493-4-1.951-5.549a7.315,7.315,0,0,0,1.638.193,6.118,6.118,0,0,0,1.67-.229,6.455,6.455,0,0,0,2.642-1.53m.507-2a6.336,6.336,0,0,1-3.4,2.667,5.155,5.155,0,0,1-1.423.2,7.518,7.518,0,0,1-2.941-.68,57.4,57.4,0,0,0,2.425,7.272,20.442,20.442,0,0,0,3.879,5.819,8.894,8.894,0,0,1,3.4-2.182,5.191,5.191,0,0,1,1.579-.233,8.927,8.927,0,0,1,3.759.959,40.607,40.607,0,0,1-5.091-7.272,21.523,21.523,0,0,1-2.182-6.546Z" transform="translate(-300.189 -69.48)" fill="#010101"/>
    <circle id="Ellipse_21" data-name="Ellipse 21" cx="2.237" cy="2.237" r="2.237" transform="translate(54.858 15.776)" fill="#379043"/>
    <circle id="Ellipse_22" data-name="Ellipse 22" cx="1.342" cy="1.342" r="1.342" transform="translate(47.34 28.663)" fill="#379043"/>
    <circle id="Ellipse_23" data-name="Ellipse 23" cx="1.79" cy="1.79" r="1.79" transform="translate(78.127 22.399)" fill="#379043"/>
    <path id="Path_254" data-name="Path 254" d="M274.765,103.6l.1.2a3.043,3.043,0,0,0-.421.916,3.144,3.144,0,0,0,0,1.235,8.892,8.892,0,0,0,.809,2.223,8.634,8.634,0,0,0,1.169,1.894,3.646,3.646,0,0,0,1.1.884,2.355,2.355,0,0,0,.922.209l.106.217a4.031,4.031,0,0,1-2.565-.523,4.654,4.654,0,0,1-1.969-2.109,4.555,4.555,0,0,1-.428-2.825A4,4,0,0,1,274.765,103.6Z" transform="translate(-232.603 -97.468)" fill="#359044"/>
    <path id="Path_255" data-name="Path 255" d="M295.477,127.052a.841.841,0,0,1,.646-.052.757.757,0,0,1,.469.4.743.743,0,0,1,.023.618.884.884,0,0,1-1.074.524.771.771,0,0,1-.5-1.02A.832.832,0,0,1,295.477,127.052Z" transform="translate(-250.233 -116.645)" fill="#359044"/>
    <path id="Path_256" data-name="Path 256" d="M305.931,121.965a.845.845,0,0,1,.644-.052.761.761,0,0,1,.471.4.75.75,0,0,1,.023.618.847.847,0,0,1-.439.473.838.838,0,0,1-.639.052.775.775,0,0,1-.5-1.018A.827.827,0,0,1,305.931,121.965Z" transform="translate(-258.813 -112.469)" fill="#359044"/>
    <path id="Path_257" data-name="Path 257" d="M316.4,116.875a.845.845,0,0,1,.644-.052.761.761,0,0,1,.471.4.743.743,0,0,1,.023.618.843.843,0,0,1-.437.473.834.834,0,0,1-.641.052.771.771,0,0,1-.494-1.018A.834.834,0,0,1,316.4,116.875Z" transform="translate(-267.411 -108.291)" fill="#359044"/>
    <path id="Path_258" data-name="Path 258" d="M314.292,96.62l-.1-.2a3.121,3.121,0,0,0,.417-.92,3.262,3.262,0,0,0,0-1.231,8.9,8.9,0,0,0-.811-2.227,8.576,8.576,0,0,0-1.167-1.892,3.636,3.636,0,0,0-1.1-.882,2.356,2.356,0,0,0-.922-.209l-.1-.215a4.026,4.026,0,0,1,2.563.523,4.654,4.654,0,0,1,1.969,2.109,4.554,4.554,0,0,1,.424,2.821,4.049,4.049,0,0,1-1.174,2.323Z" transform="translate(-262.973 -85.326)" fill="#359044"/>
    <path id="Path_259" data-name="Path 259" d="M453.862,130.665l-3.082-2.61.079-.319,3.938-.916-.132.537-3.054.725,2.382,2.026Z" transform="translate(-378.136 -116.532)" fill="#359044" stroke="#359044" stroke-miterlimit="10" stroke-width="1"/>
    <path id="Path_260" data-name="Path 260" d="M470.692,124.1l-2.791,5.227-.412-.1,2.8-5.225Z" transform="translate(-391.855 -114.217)" fill="#359044" stroke="#359044" stroke-miterlimit="10" stroke-width="1"/>
    <path id="Path_261" data-name="Path 261" d="M489.634,131.85l3.082,2.606-.079.322-3.938.916.134-.546,3.052-.716-2.382-2.026Z" transform="translate(-409.268 -120.662)" fill="#359044" stroke="#359044" stroke-miterlimit="10" stroke-width="1"/>
    <path id="Path_262" data-name="Path 262" d="M263.3,184.363l-.023-.192a1.622,1.622,0,0,0,.657-.655,1.267,1.267,0,0,0,.136-.734.179.179,0,0,0-.045-.109.09.09,0,0,0-.064-.027.2.2,0,0,0-.075.041.618.618,0,0,1-.3.115.593.593,0,0,1-.469-.143.661.661,0,0,1-.249-.442.689.689,0,0,1,.152-.537.716.716,0,0,1,.5-.285.847.847,0,0,1,.675.206,1.138,1.138,0,0,1,.358.757,1.749,1.749,0,0,1-.233,1.149A2.177,2.177,0,0,1,263.3,184.363Zm-.077-5.81a.7.7,0,0,1,.537.141.727.727,0,0,1,.129,1.017.689.689,0,0,1-.478.276.723.723,0,1,1-.186-1.434Z" transform="translate(-223.633 -158.998)" fill="#359044"/>
    <path id="Path_263" data-name="Path 263" d="M298.8,300.128a14.6,14.6,0,0,1-4.833.537c-2.6-.229-2.977-1.122-5.191-1.253-2.9-.179-3.166,1.3-6.8,1.611a22.029,22.029,0,0,1-5.907-.537c-2.962-.507-3.557-.956-5.37-.895a12.962,12.962,0,0,0-4.079.761c.766,2.169,13.424,3.068,22.745,3.068,7.9,0,18.186-.644,21.613-2.16C308.794,299.268,302.666,299.326,298.8,300.128Z" transform="translate(-226.939 -258.219)" fill="#379043"/>
    <g id="Group" transform="translate(104.335 27.894)">
      <text id="Site_" data-name="Site " transform="translate(0 22)" fill="#fff" font-size="25" font-family="TimesNewRomanPSMT, Times New Roman"><tspan x="0" y="0">Site </tspan></text>
      <text id="Cauldron" transform="translate(0 48.849)" fill="#fff" font-size="25" font-family="TimesNewRomanPSMT, Times New Roman"><tspan x="0" y="0">Cauldron</tspan></text>
    </g>
  </g>
</svg>
