<svg id="svg" xmlns="http://www.w3.org/2000/svg" xmlns:xlink="http://www.w3.org/1999/xlink" width="400" height="400" viewBox="0, 0, 400,400"><g id="svgg"><path id="path0" d="M174.219 1.530 C 135.602 9.790,119.167 37.564,119.186 94.531 C 119.198 130.437,127.491 152.671,148.770 173.854 C 196.890 221.755,269.673 188.728,280.145 114.238 C 286.482 69.166,273.412 25.844,248.860 10.541 C 233.041 0.682,197.977 -3.551,174.219 1.530 M150.781 203.244 C 66.214 220.877,50.807 240.067,47.627 331.726 C 46.700 358.446,46.277 356.540,54.910 364.536 C 81.400 389.072,126.063 399.984,200.000 399.984 C 273.937 399.984,318.600 389.072,345.090 364.536 C 353.708 356.554,353.277 358.512,352.340 331.538 C 349.200 241.165,332.441 219.819,252.125 203.899 L 243.703 202.230 239.365 206.195 C 219.986 223.906,177.172 223.413,159.495 205.274 C 156.461 202.161,156.232 202.108,150.781 203.244 " stroke="none" fill="#000000" fill-rule="evenodd"></path></g></svg>